<?xml version="1.0" encoding="utf-8"?>
<!-- Generator: Adobe Illustrator 19.0.0, SVG Export Plug-In . SVG Version: 6.00 Build 0)  -->
<svg version="1.1" id="Layer_1" xmlns="http://www.w3.org/2000/svg" xmlns:xlink="http://www.w3.org/1999/xlink" x="0px" y="0px"
	 width="40px" height="40px" viewBox="246 266 40 40" style="enable-background:new 246 266 40 40;" xml:space="preserve">
<style type="text/css">
	.st0{fill:#709A41;}
</style>
<g>
	<path class="st0" d="M271.2,276.9h-10.3c-2.2,0-4,1.8-4,4v10.3c0,2.2,1.8,4,4,4h10.3c2.2,0,4-1.8,4-4v-10.3
		C275.1,278.7,273.3,276.9,271.2,276.9z M266,291.6c-3.2,0-5.7-2.6-5.7-5.7c0-3.2,2.6-5.7,5.7-5.7s5.8,2.5,5.8,5.7
		C271.7,289.1,269.1,291.6,266,291.6z M271.9,281.3c-0.8,0-1.3-0.6-1.3-1.3c0-0.8,0.6-1.3,1.3-1.3c0.8,0,1.3,0.6,1.3,1.3
		C273.3,280.7,272.7,281.3,271.9,281.3z"/>
	<circle class="st0" cx="266" cy="285.9" r="3.7"/>
	<path class="st0" d="M266,266c-11.1,0-20,8.9-20,20s8.9,20,20,20c11.1,0,20-8.9,20-20C286.1,274.9,277.1,266,266,266z M277.1,291.2
		c0,3.3-2.7,5.9-5.9,5.9h-10.3c-3.3,0-5.9-2.7-5.9-5.9v-10.3c0-3.3,2.7-5.9,5.9-5.9h10.3c3.3,0,5.9,2.7,5.9,5.9V291.2z"/>
</g>
</svg>
