<?xml version="1.0" encoding="utf-8"?>
<!-- Generator: Adobe Illustrator 19.0.0, SVG Export Plug-In . SVG Version: 6.00 Build 0)  -->
<svg version="1.1" id="Layer_1" xmlns="http://www.w3.org/2000/svg" xmlns:xlink="http://www.w3.org/1999/xlink" x="0px" y="0px"
	 width="54px" height="54px" viewBox="17 -18 54 54" style="enable-background:new 17 -18 54 54;" xml:space="preserve">
<style type="text/css">
	.st0{fill:#D2212A;}
	.st1{fill:#D22630;}
</style>
<g>
	<path class="st0" d="M44-18C29.1-18,17-5.9,17,9s12.1,27,27,27S71,23.9,71,9S58.9-18,44-18z M44,34C30.2,34,19,22.8,19,9
		s11.2-25,25-25S69-4.8,69,9S57.8,34,44,34z"/>
	<g id="Layer_1_1_">
		<path class="st1" d="M44.9,15.2c-2,0-3.7,1.7-3.7,3.7s1.7,3.7,3.7,3.7s3.7-1.7,3.7-3.7S46.9,15.2,44.9,15.2z M44.9,20.8
			c-1,0-1.9-0.8-1.9-1.9c0-1,0.8-1.9,1.9-1.9s1.9,0.8,1.9,1.9C46.8,19.9,45.9,20.8,44.9,20.8z"/>
		<path class="st1" d="M54.2,11l-3.9,3.9L32.9-2.5c-0.3-0.3-0.8-0.3-1.3,0l-1.8,1.8c-0.3,0.4-0.3,0.9,0,1.3s0.8,0.3,1.3,0l1.1-1.1
			l17.4,17.4c0.2,0.2,0.4,0.2,0.6,0.2s0.4-0.1,0.6-0.2l4.5-4.5c0.3-0.3,0.3-0.8,0-1.3S54.5,10.6,54.2,11z"/>
		<path class="st1" d="M58.2,3.8L50-4.3c-0.3-0.3-0.8-0.3-1.3,0l-7.2,7.2c-0.2,0.2-0.2,0.4-0.2,0.6c0,0.2,0.1,0.4,0.2,0.6l8.1,8.1
			c0.2,0.2,0.4,0.2,0.6,0.2s0.4-0.1,0.6-0.2l7.2-7.2C58.5,4.8,58.5,4.2,58.2,3.8z M50.3,10.4l-6.9-6.9l6-6l6.9,6.9L50.3,10.4z"/>
	</g>
</g>
</svg>
