<?xml version="1.0" encoding="utf-8"?>
<!-- Generator: Adobe Illustrator 19.0.0, SVG Export Plug-In . SVG Version: 6.00 Build 0)  -->
<svg version="1.1" id="Layer_1" xmlns="http://www.w3.org/2000/svg" xmlns:xlink="http://www.w3.org/1999/xlink" x="0px" y="0px"
	 width="40px" height="40px" viewBox="246 266 40 40" style="enable-background:new 246 266 40 40;" xml:space="preserve">
<style type="text/css">
	.st0{fill:#709A41;}
</style>
<path class="st0" d="M266,266c-11,0-20,9-20,20c0,11,9,20,20,20c11,0,20-9,20-20C286,275,277,266,266,266z M274.6,283.9
	c-0.2,2.6-2.1,5.6-3.8,6.4c-1.7,0.9-3.6,0.9-4.6,0.3c0,0-1.4-0.8-1.6-1.1c-0.1,0.1-0.5,2.4-1.1,3.9c-0.6,1.5-1.4,2.9-2.5,3.6
	c-0.4-1.3-0.1-4.6,0.6-7.5c0.8-2.9,1.1-4.2,1.1-4.2s-1-1.9,0-4c1-2.1,2.8-1.6,3.2-1.3s1,0.6,0.5,2.7s-1.4,4.2-0.7,5.4
	c0.5,0.6,2.8,1.2,4.2-0.6c1.1-1.8,1.5-2.7,1.6-5.5c0,0,0.1-4.6-4.1-4.9c-3.5-0.2-5.1,1.2-6.1,2.3c-1.1,1.1-1.9,4.1-0.9,5.7
	c0.5,0.7,0.5,1.2,0.5,1.6c-0.1,0.4-0.4,1.1-0.4,1.1s-2.9-0.5-3.1-4.1c-0.1-3.6,1.5-5.7,3-6.8c1.5-1.1,4.1-2.6,9.2-1.6
	C273,276.1,275.1,279,274.6,283.9z"/>
</svg>
