<?xml version="1.0" encoding="utf-8"?>
<!-- Generator: Adobe Illustrator 15.1.0, SVG Export Plug-In . SVG Version: 6.00 Build 0)  -->
<!DOCTYPE svg PUBLIC "-//W3C//DTD SVG 1.1//EN" "http://www.w3.org/Graphics/SVG/1.1/DTD/svg11.dtd">
<svg version="1.1" id="Layer_1" xmlns="http://www.w3.org/2000/svg" xmlns:xlink="http://www.w3.org/1999/xlink" x="0px" y="0px"
	 width="588.915px" height="583.915px" viewBox="0 0 588.915 583.915" enable-background="new 0 0 588.915 583.915"
	 xml:space="preserve">
<style type="text/css">
    .st0{fill:#838383;}
</style>
<g>
	<g>
		<path class="st0" fill-rule="evenodd" clip-rule="evenodd" d="M317.595,0.088c1.591,0.831-0.203,2.502-0.399,3.999
			c-0.247,1.882,0.152,3.854-0.399,5.599c-0.991,3.133-3.719,3.43-4.798,5.599c0,21.192,0,42.386,0,63.58
			c19.812-2.641,33.574,8.722,34.389,24.392c0.368,7.065-2.123,15.047-6.398,19.594c-3.05,3.243-10.304,8.149-17.594,8.797
			c-8.053,0.716-18.271,0-27.991,0c-9.832,0-19.84,0.679-27.993,0c-9.605-0.799-17.06-7.107-20.393-11.996
			c-10.505-15.407,0.507-38.677,17.595-40.787c3.997-0.494,7.685,0.265,11.996-0.8c1.98-4.289,1.2-9.669,1.2-14.796
			c0-9.972,0.161-20.676,0-31.19c-0.08-5.289,0.443-11.006-0.399-15.195c-0.49-2.434-2.712-4.291-3.6-6.798
			c-1.2-3.39-1.171-6.492-2-9.197c11.7-3.892,10.641,9.276,11.597,18.393c1.989,18.969,4.374,41.661,5.598,59.183
			c3.468,0.93,8.662,0.134,12.796,0.399C302.3,63.67,304.333,39.57,306,21.681C307.058,10.321,305.708-1.12,317.595,0.088z"/>
		<path class="st0" fill-rule="evenodd" clip-rule="evenodd" d="M239.22,154.04c-3.404,6.593-6.084,13.91-9.596,20.395
			c-7.41-6.834-9.002-19.525-17.195-25.592c-2.559-1.895-5.6-2.947-7.998-4.398c-12.227-7.398-21-18.808-28.791-31.59
			c-2.782-4.564-5.921-9.842-9.999-13.995c-3.004-3.062-7.167-5.282-9.996-8.798c-2.186-2.717-3.893-6.789-5.198-10.396
			c-1.396-3.856-3.096-8.347-2.399-12.396c0.912,0.55,1.503-1.031,1.6,0c8.81,2.716,12.529,10.056,17.594,17.195
			c2.422,3.412,5.812,8,8.798,9.996c1.773,1.186,3.991,1.527,5.598,2.399c11.618,6.309,17.127,17.661,26.392,27.591
			C217.93,135.062,230.789,142.435,239.22,154.04z"/>
		<path class="st0" fill-rule="evenodd" clip-rule="evenodd" d="M439.559,69.267c0.151,4.909-1.852,9.526-3.599,13.596
			c-1.611,3.749-3.723,7.984-6.398,11.196c-2.933,3.518-7.142,5.893-9.997,9.197c-3.511,4.063-6.127,9.011-9.198,13.596
			c-5.761,8.604-12.888,18.362-20.793,24.792c-5.622,4.573-15.485,8.228-19.993,14.795c-3.562,5.189-5.508,11.598-9.597,16.396
			c-4.111-5.755-8.965-10.764-13.196-16.396c11.529-12.941,26.504-23.063,37.987-36.789c5.706-6.819,10.041-14.718,17.995-19.594
			c2.629-1.611,6.082-2.201,8.797-3.999c3.288-2.177,5.503-7.224,8.397-11.196c2.722-3.736,5.867-8.189,8.799-10.797
			C431.307,71.799,435.16,69.648,439.559,69.267z"/>
		<path class="st0" fill-rule="evenodd" clip-rule="evenodd" d="M521.133,192.828c0.598,2.193,1.663,5.969,0.799,9.598
			c-1.381,5.805-8.508,10.035-13.594,14.396c-10.541,9.034-20.426,15.749-34.39,20.793c-6.433,2.324-15.093,5.785-22.794,5.599
			c-7.455-0.18-14.863-3.706-21.992-5.998c-17.478-5.62-34.491-10.539-53.185-15.995c-3.924-1.145-8.468-2.322-9.596-3.999
			c-1.674-2.484-1.82-10.198-1.601-15.596c0.366-8.947,3.583-16.625,7.997-20.394c4.64-3.961,15.469-6.347,22.793-9.197
			c22.629-8.803,44.009-19.94,65.579-29.191c15.744-6.751,30.232-12.72,45.987-17.594c16.386-5.069,33.075-9.48,52.383-10.797
			c17.295-1.18,31.256,4.639,29.19,24.792c-0.714,6.982-4.572,14.511-7.995,19.994c-6.859,10.983-16.872,20.883-28.393,27.591
			C544.022,191.664,533.264,195.219,521.133,192.828z"/>
		<path class="st0" fill-rule="evenodd" clip-rule="evenodd" d="M222.026,221.62c-6.191,3.326-13.639,4.597-21.194,6.798
			c-14.246,4.151-28.018,8.094-43.187,12.796c-7.651,2.37-14.741,5.821-22.393,5.598c-5.678-0.165-12.396-2.676-18.394-4.798
			c-11.917-4.217-21.393-8.981-30.791-15.595c-6.801-4.787-12.436-9.168-16.795-15.996c-2.874-4.5-3.773-9.445-0.399-14.396
			c-18.095,4.716-33.554-4.491-43.586-13.196c-7.854-6.815-14.623-13.323-19.595-23.593c-3.102-6.408-6.283-14.596-5.598-22.793
			c0.977-11.668,10.736-17.838,21.594-18.794c19.064-1.677,39.663,4.996,55.983,10.396c17.38,5.753,32.206,11.639,47.984,18.395
			c14.302,6.124,31.377,13.224,45.986,20.394c6.523,3.201,15.131,6.54,23.593,9.598c7.937,2.866,18.309,6.145,22.392,10.396
			c1.302,1.355,2.33,4.088,3.599,7.198c1.491,3.655,3.079,6.494,3.199,10.797C224.586,210.559,222.43,216.417,222.026,221.62z"/>
		<path class="st0" fill-rule="evenodd" clip-rule="evenodd" d="M291.604,139.645c26.896-1.989,46.248,10.059,56.783,26.792
			c5.596,8.888,7.997,19.311,7.997,33.19c0,13.64,0,26.847,0,40.787c0,15.728-0.736,24.863-5.998,35.189
			c-6.108,11.987-15.411,21.698-28.791,26.791c-15.918,6.061-39.88,5.481-55.184,0c-12.817-4.59-22.234-14.141-27.991-24.392
			c-3.418-6.086-5.571-12.225-6.397-19.994c-0.772-7.247-0.4-16.098-0.4-25.592c0-17.206-1.88-36.917,1.599-50.784
			c5.251-20.929,19.413-33.737,40.788-39.189C279.554,141.03,284.724,140.154,291.604,139.645z"/>
		<path class="st0" fill-rule="evenodd" clip-rule="evenodd" d="M520.333,387.169c-8.086,2.615-17.18-0.851-23.991-4.399
			c-5.07-2.643-8.871-6.721-13.597-9.198c-5.004-2.622-10.986-4.1-16.396-6.398c-12.979-5.513-24.76-12.549-33.587-22.791
			c-1.734-2.011-2.734-4.828-4.8-6.398c-2.58-1.96-7.159-3.085-10.797-4.398c-10.629-3.841-21.725-8.036-29.992-14.797
			c-4.604-3.765-7.101-8.413-12.395-12.396c-8.997,1.275-12.543-3.664-16.795-7.997c-0.786-0.8-3.295-1.3-2-2.799
			c0.852-1.532,2.887-0.772,4-0.8c4.319-0.107,9.798,0.152,14.396-0.4c9.369-1.127,16.974,2.171,23.192,5.997
			c4.56,2.807,9.137,5.812,13.596,8.797c9.732,6.518,18.919,12.148,26.792,17.994c4.602,3.418,8.553,6.711,12.796,9.598
			c4.623,3.143,9.175,5.834,13.994,8.398c7.987,4.249,14.056,7.348,19.595,13.995c1.608,1.928,3.082,4.365,4.799,5.998
			c3.438,3.271,9.18,5.523,13.996,7.997c2.317,1.19,4.624,2.564,7.198,3.999C515.204,379.884,518.354,381.371,520.333,387.169z"/>
		<path class="st0" fill-rule="evenodd" clip-rule="evenodd" d="M232.023,295.196c1.766,0.939-0.92,2.04-1.599,2.8
			c-2.327,2.599-5.549,6.271-8.798,7.997c-2.696,0.124-6.363-0.28-8.797,0.8c-1.756,0.779-3.37,3.249-5.198,5.198
			c-4.876,5.201-9.251,8.296-16.395,12.397c-2.042,1.171-4.303,2.027-6.397,3.199c-1.992,1.113-3.732,2.742-5.599,3.598
			c-6.237,2.862-13.224,3.151-18.394,7.197c-5.531,4.33-9.179,9.91-13.997,13.997c-4.993,4.233-10.531,7.488-16.794,10.797
			c-9.269,4.893-20.17,7.365-28.792,13.195c-2.488,1.683-4.721,4.218-7.596,5.998c-5.309,3.286-12.114,4.713-19.595,5.599
			c-2.073,0.246-4.842,0.788-6.798-0.4c3.271-10.917,14.777-12.894,24.393-17.994c1.914-1.015,4.571-2.137,5.999-3.198
			c2.368-1.765,3.619-5.342,5.598-7.598c3.042-3.469,6.938-6.347,11.197-8.798c4.162-2.396,8.862-4.197,13.196-6.798
			c8.284-4.971,16.086-11.875,23.193-16.795c8.021-5.553,16.318-10.708,24.393-15.595c8.557-5.178,16.396-11.164,24.392-15.596
			c2.899-1.605,12.313-0.399,17.195-0.399C222.253,294.797,227.523,294.489,232.023,295.196z"/>
		<path class="st0" fill-rule="evenodd" clip-rule="evenodd" d="M237.221,315.59c7.739-1.703,21.282-0.4,30.39-0.4c20.067,0,38.064,0,59.181,0
			c8.059,0,8.655,0,14.796,0c11.821,0,15.359-0.773,15.195,10.798c-0.047,3.367-0.501,8.521-1.999,9.996
			c-3.403,3.351-21.044,1.6-29.591,1.6c-22.085,0-40.445,0-63.18,0c-10.098,0-25.823,1.162-28.792-1.999
			c-2.119-2.257-3.142-14.954,0-18.395C234.275,316.038,235.64,315.94,237.221,315.59z"/>
		<path class="st0" fill-rule="evenodd" clip-rule="evenodd" d="M222.026,325.988c1.767,0.346-0.231,2.036-0.4,2.398
			c-2.661,5.701-5.759,13.293-9.597,18.395c-2.411,1.056-6.706,0.224-8.798,1.6c-1.439,7.699-0.799,15.908-0.799,24.392
			c0,16.191,0,33.25,0,49.985c0,8.858,1.002,19.162-0.4,26.392c-1.055,5.441-4.235,11.874-6.796,17.994
			c-12.342,29.479-25.041,56.641-37.589,86.374c-2.228,5.277-3.859,11.364-7.198,17.594c-2.819,5.263-7.651,12.929-11.996,12.797
			c-6.243-0.189-10.77-16.651-9.596-23.192c1.289-7.201,9.029-15.419,13.595-21.193c1.8-2.277,4.028-4.39,4.799-6.8
			c1.372-4.291,1.076-9.457,1.6-13.595c1.57-12.412,6.607-23.113,10.796-33.989c5.582-14.491,9.75-30.164,11.997-47.986
			c3.815-30.263,8.835-60.739,14.795-90.371c0.901-4.481,1.371-9.467,2.799-11.997c2.55-4.514,11.976-8.81,19.593-9.597
			C213.42,324.714,217.906,325.119,222.026,325.988z"/>
		<path class="st0" fill-rule="evenodd" clip-rule="evenodd" d="M385.576,348.38c-3.369-1.663-5.652,0.108-8.397-1.199
			c-3.584-1.709-4.12-5.797-5.998-9.997c-1.956-4.369-5.482-8.116-5.198-11.597c6.862,1.707,12.321-1.586,19.192,0
			c3.832,0.884,12.776,6.361,14.396,9.597c1.217,2.426,1.538,7.612,2.401,11.997c5.465,27.773,11.068,56.779,14.395,85.973
			c1.062,9.33,1.7,17.579,3.599,25.192c4.667,18.726,12.984,34.416,17.995,53.983c0.963,3.763,2.628,7.78,2.799,11.197
			c0.155,3.098-1.062,5.108-0.799,7.197c0.577,4.607,7.641,11.129,10.396,14.795c4.187,5.571,9.283,11.393,9.596,18.795
			c0.273,6.418-4.024,19.953-10.396,19.594c-4.653-0.263-8.056-8.238-11.196-13.597c-9.193-15.676-16.176-33.782-23.193-50.384
			c-7.294-17.25-14.008-34.438-21.594-52.384c-2.965-7.01-7.019-13.178-7.598-20.394c-1.235-15.42,0-32.772,0-49.585
			C385.975,380.638,386.303,363.891,385.576,348.38z"/>
		<path class="st0" fill-rule="evenodd" clip-rule="evenodd" d="M230.023,356.779c8.22-0.676,22.194,0,33.589,0c27.031,0,57.21-0.002,85.973,0
			c12.826,0,17.188-1.008,17.596,10.395c0.072,2.023-0.151,3.738-0.399,5.198c-0.381,2.239-0.316,2.626-1.601,4
			c-2.298,2.459-9.015,2.68-15.994,2.399c-30.653-1.226-58.416,0-89.973,0c-5.048,0-11.769,0-18.395,0
			c-12.617,0-19.24,1.326-19.194-10.797c0.014-3.449,0.27-7.852,1.999-9.596C225.412,356.575,227.771,356.962,230.023,356.779z"/>
		<path class="st0" fill-rule="evenodd" clip-rule="evenodd" d="M355.184,417.56c-7.974,2.552-18.634,1.198-29.591,1.198
			c-25.42,0-51.396,0-78.375,0c-5.2,0-11.906,0.462-13.997-1.599c-3.059-3.019-1.571-13.318-0.799-17.596
			c1.43-0.931,2.922-1.773,4.799-1.999c8.043-0.966,19.592,0,29.99,0c23.438,0,49,0,73.977,0c4.352,0,11.806-0.432,13.597,1.2
			C357.866,401.571,356.406,414.347,355.184,417.56z"/>
		<path class="st0" fill-rule="evenodd" clip-rule="evenodd" d="M333.59,439.552c2.082,2.62,1.6,6.466,1.6,9.996
			c0,3.341,0.554,8.194-1.199,9.997c-2.149,2.213-12.233,0.494-18.395,0.4c-14.478-0.222-27.355,0.399-41.187,0.399
			c-5.622,0-16.976,1.238-19.993-0.8c-3.757-2.536-3.528-18.691,0.799-20.394c3.912-1.538,14.206-0.4,20.794-0.4
			c13.125,0,26.032,0,39.188,0C321.538,438.751,327.772,438.143,333.59,439.552z"/>
		<path class="st0" fill-rule="evenodd" clip-rule="evenodd" d="M302.801,469.542c2.65,1.49,2.399,5.56,2.399,9.997
			c0,3.973,0.535,8.665-1.2,10.797c-5.484,1.713-13.329,1.068-20.394,1.2c0.266-6.933-0.532-14.929,0.4-21.193
			C288.744,468.548,296.75,470.023,302.801,469.542z"/>
	</g>
</g>
</svg>
