<?xml version="1.0" encoding="utf-8"?>
<!-- Generator: Adobe Illustrator 19.0.0, SVG Export Plug-In . SVG Version: 6.00 Build 0)  -->
<svg version="1.1" id="Layer_1" xmlns="http://www.w3.org/2000/svg" xmlns:xlink="http://www.w3.org/1999/xlink" x="0px" y="0px"
	 width="50px" height="50px" viewBox="0 0 50 50" style="enable-background:new 0 0 50 50;" xml:space="preserve">
<style type="text/css">
	.st0{fill:#D2212A;}
</style>
<path class="st0" d="M24,37.1c2.2,0,3.9,1.8,3.9,3.9s-1.8,3.9-3.9,3.9s-3.9-1.8-3.9-3.9S21.8,37.1,24,37.1z M36.1,41
	c0,2.2,1.8,3.9,3.9,3.9s3.9-1.8,3.9-3.9s-1.8-3.9-3.9-3.9S36.1,38.8,36.1,41z M46,33c0-1.1-0.9-2-2-2H20.7L12.1,6.3
	C11.8,5.5,11,5,10.2,5H4C2.9,5,2,5.9,2,7s0.9,2,2,2h4.8l8.7,24.7c0.3,0.8,1,1.3,1.9,1.3H44C45.1,35,46,34.1,46,33z M46.4,14H33.3
	H20.2c-0.9,0-1.3,0.4-1.1,1.2l4.2,11.9c0.2,0.7,0.9,0.9,1.6,0.9h8.4h8.4c0.7,0,1.4-0.2,1.6-0.9l4.2-11.9C47.7,14.4,47.3,14,46.4,14z
	"/>
</svg>
