<?xml version="1.0" encoding="utf-8"?>
<!-- Generator: Adobe Illustrator 19.0.0, SVG Export Plug-In . SVG Version: 6.00 Build 0)  -->
<svg version="1.1" id="Layer_1" xmlns="http://www.w3.org/2000/svg" xmlns:xlink="http://www.w3.org/1999/xlink" x="0px" y="0px"
	 width="54px" height="54px" viewBox="0 0 54 54" style="enable-background:new 0 0 54 54;" xml:space="preserve">
<style type="text/css">
	.st0{fill:#D2212A;}
</style>
<g>
	<path class="st0" d="M27,0C12.1,0,0,12.1,0,27s12.1,27,27,27c14.9,0,27-12.1,27-27S41.9,0,27,0z M27,52C13.2,52,2,40.8,2,27
		C2,13.2,13.2,2,27,2c13.8,0,25,11.2,25,25C52,40.8,40.8,52,27,52z"/>
	<path class="st0" d="M46,30.6c-1.1-0.8-2.3-1.5-3.5-2c1.6-1.6,2.6-3.9,2.6-6.3c0-4.8-3.8-8.7-8.5-8.7c-4.7,0-8.5,3.9-8.5,8.7
		c0,2.4,0.9,4.6,2.6,6.3c-1.8,0.7-3.4,1.8-4.7,3.1c-0.3,0.3-0.3,0.8,0,1.2c0.2,0.2,0.4,0.3,0.6,0.3c0.2,0,0.4-0.1,0.6-0.2
		c1.5-1.4,3.4-2.5,5.4-3.2c0.3-0.1,0.5-0.4,0.6-0.7c0-0.3-0.1-0.6-0.3-0.8c-1.9-1.3-3-3.5-3-5.9c0-3.9,3.1-7,6.8-7
		c3.8,0,6.8,3.2,6.8,7c0,2.4-1.1,4.6-3,5.9c-0.3,0.2-0.4,0.5-0.3,0.8c0,0.3,0.3,0.6,0.6,0.7c1.6,0.5,3.1,1.3,4.4,2.3
		c0.4,0.3,0.9,0.2,1.2-0.1C46.4,31.4,46.4,30.8,46,30.6z"/>
	<path class="st0" d="M22.8,32.9c1.6-1.6,2.6-3.9,2.6-6.3c0-4.8-3.8-8.7-8.5-8.7c-4.7,0-8.5,3.9-8.5,8.7c0,2.4,0.9,4.6,2.6,6.3
		c-0.8,0.3-1.7,0.8-2.4,1.3c-0.4,0.2-0.5,0.8-0.3,1.1c0.2,0.4,0.8,0.5,1.1,0.3c1.1-0.7,2.2-1.2,3.4-1.6c0.3-0.1,0.5-0.4,0.6-0.7
		c0-0.3-0.1-0.6-0.3-0.8c-1.9-1.3-3-3.5-3-5.9c0-3.9,3.1-7.1,6.8-7.1c3.8,0,6.8,3.2,6.8,7.1c0,2.4-1.1,4.6-3,5.9
		c-0.3,0.2-0.4,0.5-0.3,0.8c0,0.3,0.3,0.6,0.6,0.7c3.3,1,6.2,3.3,7.6,6c0.1,0.3,0.4,0.4,0.7,0.4c0.1,0,0.3,0,0.4-0.1
		c0.4-0.2,0.6-0.7,0.4-1.1C28.5,36.4,25.9,34.2,22.8,32.9z"/>
</g>
</svg>
