<?xml version="1.0" encoding="utf-8"?>
<!-- Generator: Adobe Illustrator 19.0.0, SVG Export Plug-In . SVG Version: 6.00 Build 0)  -->
<svg version="1.1" id="Layer_1" xmlns="http://www.w3.org/2000/svg" xmlns:xlink="http://www.w3.org/1999/xlink" x="0px" y="0px"
	 width="40px" height="40px" viewBox="18 38 40 40" style="enable-background:new 18 38 40 40;" xml:space="preserve">
<style type="text/css">
	.st0{fill:#709A41;}
</style>
<path class="st0" d="M38,38c-11,0-20,9-20,20c0,11,9,20,20,20s20-9,20-20C58,47,49,38,38,38z M47.1,54.4c0,0.2,0,0.4,0,0.6
	c0,6-4.6,12.9-12.9,12.9c-2.6,0-4.9-0.8-7-2c0.4,0,0.7,0.1,1.1,0.1c2.1,0,4.1-0.7,5.6-1.9c-2,0-3.7-1.3-4.2-3.2
	c0.3,0.1,0.6,0.1,0.9,0.1c0.4,0,0.8-0.1,1.2-0.2c-2.1-0.4-3.6-2.3-3.6-4.4c0,0,0,0,0-0.1c0.6,0.3,1.3,0.5,2.1,0.6
	c-1.2-0.8-2-2.2-2-3.8c0-0.8,0.2-1.6,0.6-2.3c2.2,2.7,5.6,4.6,9.4,4.7c-0.1-0.3-0.1-0.7-0.1-1c0-2.5,2-4.5,4.5-4.5
	c1.3,0,2.5,0.6,3.3,1.4c1-0.2,2-0.6,2.9-1.1c-0.3,1.1-1.1,1.9-2,2.5c0.9-0.1,1.8-0.4,2.6-0.7C48.7,52.9,48,53.7,47.1,54.4z"/>
</svg>
