<?xml version="1.0" encoding="utf-8"?>
<!-- Generator: Adobe Illustrator 19.0.0, SVG Export Plug-In . SVG Version: 6.00 Build 0)  -->
<svg version="1.1" id="Layer_1" xmlns="http://www.w3.org/2000/svg" xmlns:xlink="http://www.w3.org/1999/xlink" x="0px" y="0px"
	 width="11.1px" height="10.6px" viewBox="-5 7.4 11.1 10.6" style="enable-background:new -5 7.4 11.1 10.6;" xml:space="preserve"
	>
<style type="text/css">
	.st0{fill:#838383;}
</style>
<path id="XMLID_158_" class="st0" d="M-4.6,7.9v4.9H-5V7.4h7.2v0.4L-4.6,7.9L-4.6,7.9z M-4.6,16.8h0.9v0.4H-5v-0.8h0.4V16.8z
	 M3.5,7.4l0.8,0.9L-1.1,13c0.1,0.3,0.1,0.7,0,1.1c-0.1,0.4-0.4,0.8-0.7,1.2c-0.2,0.2-0.5,0.4-0.7,0.6c-0.2,0.2-0.5,0.2-0.8,0.3
	c-0.3,0.1-0.5,0-0.7,0c-0.2,0-0.4-0.1-0.6-0.3c-0.1-0.1-0.2-0.3-0.3-0.5s-0.1-0.4,0-0.7c0-0.2,0.1-0.5,0.3-0.8
	c0.1-0.2,0.3-0.5,0.5-0.7c0.2-0.2,0.4-0.4,0.6-0.5c0.2-0.2,0.4-0.3,0.6-0.3c0.2-0.1,0.4-0.1,0.6-0.1s0.4,0,0.6,0.1L3.5,7.4z
	 M-2.3,18l-0.8-0.8l5.3-4.6l-0.1-0.4l0.3-0.8l1.9-2l0.5-0.2L4.6,9.7l-1.9,1.9L3.1,12L5,10.1l0.5-0.2l-0.2,0.5l-2,1.9l0.4,0.4
	l1.9-1.9l0.5-0.2l-0.2,0.5L4,13l-0.8,0.2H2.8L-2.3,18z M5.7,16.8v-4.9h0.4v5.4h-6.4v-0.5H5.7z M5.7,7.9h-1V7.4h1.5v2.3H5.8V7.9H5.7z
	"/>
</svg>
