<?xml version="1.0" encoding="utf-8"?>
<!-- Generator: Adobe Illustrator 19.0.0, SVG Export Plug-In . SVG Version: 6.00 Build 0)  -->
<svg version="1.1" id="Layer_1" xmlns="http://www.w3.org/2000/svg" xmlns:xlink="http://www.w3.org/1999/xlink" x="0px" y="0px"
	 width="15.3px" height="10.7px" viewBox="-3 7.3 15.3 10.7" style="enable-background:new -3 7.3 15.3 10.7;" xml:space="preserve"
	>
<style type="text/css">
	.st0{fill:#838383;}
</style>
<path id="XMLID_50_" class="st0" d="M1.6,7.3c0.7,0,1.4,0.1,1.9,0.4c0.6,0.2,1.1,0.6,1.5,1c0.4,0.5,0.7,1,0.9,1.7
	c0.2,0.7,0.3,1.4,0.3,2.2s-0.1,1.6-0.3,2.3c-0.2,0.7-0.5,1.2-0.9,1.7c-0.4,0.5-0.9,0.8-1.4,1C3,17.8,2.4,18,1.7,18s-1.4-0.1-1.9-0.4
	c-0.6-0.2-1-0.6-1.4-1c-0.4-0.5-0.7-1-0.9-1.7S-3,13.5-3,12.6s0.1-1.6,0.3-2.2c0.2-0.6,0.5-1.2,0.9-1.7s0.9-0.8,1.4-1
	C0.2,7.4,0.9,7.3,1.6,7.3z M1.6,9.3C1.3,9.3,1,9.4,0.7,9.5c-0.2,0.2-0.4,0.4-0.6,0.7c-0.2,0.2-0.4,0.6-0.5,1
	c-0.1,0.4-0.1,0.9-0.1,1.4s0.1,1,0.2,1.4c0.1,0.4,0.2,0.8,0.4,1c0.2,0.3,0.4,0.5,0.7,0.7C1,15.9,1.3,16,1.6,16
	c0.3,0,0.6-0.1,0.9-0.2c0.3-0.2,0.5-0.4,0.7-0.7s0.3-0.6,0.4-1s0.2-0.9,0.2-1.4s-0.1-1-0.2-1.4s-0.2-0.8-0.4-1
	C2.9,9.9,2.7,9.7,2.4,9.5C2.2,9.4,1.9,9.3,1.6,9.3z M11.9,9.9c-0.8-0.5-1.6-0.7-2.4-0.7c-0.5,0-1,0.1-1.4,0.2
	c-0.4,0.2-0.8,0.4-1,0.7c-0.4,0.3-0.6,0.7-0.7,1.1c-0.2,0.4-0.3,0.9-0.3,1.4s0.1,1,0.2,1.4c0.1,0.4,0.3,0.8,0.6,1.1
	c0.3,0.3,0.6,0.5,0.9,0.7C8.2,16,8.5,16,9,16c0.2,0,0.3,0,0.5,0s0.3,0,0.5-0.1v-2.1H8.6v-2h3.7v5.7c-0.5,0.2-1,0.3-1.5,0.3
	c-0.5,0.1-1.1,0.1-1.6,0.1c-1.8,0-3.2-0.4-4.1-1.3c-0.9-0.8-1.3-2.1-1.3-3.9c0-0.8,0.1-1.6,0.3-2.3c0.2-0.7,0.6-1.2,1-1.7
	c0.4-0.5,1-0.8,1.7-1.1C7.4,7.4,8.2,7.3,9,7.3c1.1,0,2.1,0.2,3,0.5L11.9,9.9z"/>
</svg>
