<?xml version="1.0" encoding="utf-8"?>
<!-- Generator: Adobe Illustrator 19.0.0, SVG Export Plug-In . SVG Version: 6.00 Build 0)  -->
<svg version="1.1" id="Layer_1" xmlns="http://www.w3.org/2000/svg" xmlns:xlink="http://www.w3.org/1999/xlink" x="0px" y="0px"
	 width="20.3px" height="8.6px" viewBox="-1 8.4 20.3 8.6" style="enable-background:new -1 8.4 20.3 8.6;" xml:space="preserve">
<style type="text/css">
	.st0{fill:#838383;}
</style>
<path id="XMLID_90_" class="st0" d="M-1,8.4h2.7c1,0,1.8,0.2,2.3,0.6c0.5,0.4,0.8,1.1,0.8,2.1S4.6,12.8,4,13.3
	C3.6,13.8,2.8,14,1.9,14H1v3h-2V8.4z M1,10v2.5h0.5c0.8,0,1.2-0.4,1.2-1.2c0-0.9-0.4-1.3-1.2-1.3C1.5,10,1,10,1,10z M5.2,8.4h2.1
	L9,15.1l1.7-6.7h2.1L10.2,17H7.6L5.2,8.4z M13.5,8.4h2.7c1.1,0,1.8,0.2,2.3,0.7c0.5,0.4,0.8,1.1,0.8,2.1s-0.2,1.7-0.8,2.1
	S17.3,14,16.3,14h-0.8v3h-2V8.4z M15.5,9.9v2.5H16c0.8,0,1.2-0.4,1.2-1.2c0-0.9-0.4-1.3-1.2-1.3H15.5z"/>
</svg>
