<?xml version="1.0" encoding="utf-8"?>
<!-- Generator: Adobe Illustrator 19.0.0, SVG Export Plug-In . SVG Version: 6.00 Build 0)  -->
<svg version="1.1" id="Layer_1" xmlns="http://www.w3.org/2000/svg" xmlns:xlink="http://www.w3.org/1999/xlink" x="0px" y="0px"
	 width="54px" height="54px" viewBox="0 0 54 54" style="enable-background:new 0 0 54 54;" xml:space="preserve">
<style type="text/css">
	.st0{opacity:0;}
	.st1{fill:#D2212A;}
</style>
<rect class="st0" width="54" height="54"/>
<path class="st1" d="M27,0C12.1,0,0,12.1,0,27c0,14.9,12.1,27,27,27c14.9,0,27-12.1,27-27C54,12.1,41.9,0,27,0z M27,52
	C13.2,52,2,40.8,2,27C2,13.2,13.2,2,27,2c13.8,0,25,11.2,25,25C52,40.8,40.8,52,27,52z"/>
<path class="st1" d="M36.8,19.8c-1.3,0.5-4.6,1.9-7.2,4.8c-1.3,1.5-2.2,3.1-2.8,4.5c0-2.8,0.2-5.6,0.5-8c0.7-0.4,2.8-1.8,4.2-4.1
	c1.2-2,1.5-4.2,1.6-5.3c0-0.4-0.2-0.7-0.5-0.9c-0.3-0.2-0.7-0.2-1,0c-0.9,0.6-2.7,1.9-3.9,3.9c-1.5,2.6-1.6,5.4-1.6,5.9
	c0,0.1,0,0.1-0.1,0.2c-0.2,1.2-0.3,2.5-0.4,3.8c-0.4-1-0.9-2-1.5-2.9c-1.9-2.7-4.6-4.3-5.7-4.9c-0.1-0.1-0.3-0.1-0.4-0.1
	c-0.2,0-0.4,0.1-0.6,0.2c-0.3,0.2-0.5,0.6-0.4,0.9c0.1,1.2,0.7,4.3,2.6,7c2,2.9,4.9,4.5,5.9,5c0,4.6,0.3,8.7,0.3,9
	c0,0.3,0.3,0.6,0.6,0.6c0,0,0,0,0,0c0.4,0,0.6-0.3,0.6-0.7c0-0.1-0.2-2.2-0.2-5.1c1.2-0.4,4.7-1.8,7.3-4.8c2.5-2.9,3.6-6.3,3.9-7.7
	c0.1-0.3,0-0.7-0.3-1C37.6,19.7,37.2,19.6,36.8,19.8z M20.7,24c-1.5-2.1-2-4.5-2.3-5.8c1.2,0.7,3.2,2,4.7,4.2c1.5,2.1,2,4.4,2.3,5.8
	C24.2,27.4,22.2,26.1,20.7,24z M28.9,15.3c0.9-1.5,2.1-2.5,2.9-3.1c-0.1,1.1-0.5,2.6-1.3,4.1c-0.9,1.5-2.1,2.5-2.9,3.1
	C27.7,18.3,28.1,16.8,28.9,15.3z M33.3,27.7c-2,2.3-4.6,3.6-6.1,4.2c0.4-1.5,1.4-4.2,3.4-6.5c2-2.3,4.6-3.6,6.1-4.2
	C36.3,22.7,35.3,25.4,33.3,27.7z"/>
<path class="st1" d="M36,40.8H18.1c-0.4,0-0.8,0.3-0.8,0.8s0.3,0.8,0.8,0.8H36c0.4,0,0.8-0.3,0.8-0.8S36.4,40.8,36,40.8z"/>
</svg>
