<?xml version="1.0" encoding="utf-8"?>
<!-- Generator: Adobe Illustrator 19.0.0, SVG Export Plug-In . SVG Version: 6.00 Build 0)  -->
<svg version="1.1" id="Layer_1" xmlns="http://www.w3.org/2000/svg" xmlns:xlink="http://www.w3.org/1999/xlink" x="0px" y="0px"
	 width="54px" height="54px" viewBox="0 0 54 54" style="enable-background:new 0 0 54 54;" xml:space="preserve">
<style type="text/css">
	.st0{opacity:0;}
	.st1{fill:#D2212A;}
</style>
<rect x="0" class="st0" width="54" height="54"/>
<path class="st1" d="M27,0C12.1,0,0,12.1,0,27c0,14.9,12.1,27,27,27c14.9,0,27-12.1,27-27C54,12.1,41.9,0,27,0z M27,52
	C13.2,52,2,40.8,2,27C2,13.2,13.2,2,27,2c13.8,0,25,11.2,25,25C52,40.8,40.8,52,27,52z"/>
<path class="st1" d="M36.2,19.6c-0.2-0.2-0.3-0.4-0.3-0.7l0-2.3c0-1.4-1.1-2.5-2.5-2.6l-2.2,0c-0.2,0-0.5-0.1-0.6-0.3l-1.6-1.6
	c-1-1-2.7-1-3.6,0l-1.6,1.6c-0.2,0.2-0.4,0.3-0.6,0.3c0,0,0,0,0,0l-2.3,0c-1.4,0-2.5,1.1-2.6,2.5l0,2.2c0,0.3-0.1,0.5-0.4,0.7
	l-1.6,1.6c-0.5,0.5-0.8,1.2-0.8,1.9c0,0.7,0.3,1.3,0.7,1.8l1.6,1.6c0.2,0.2,0.3,0.4,0.3,0.7l0,2.3c0,1.4,1.1,2.5,2.5,2.6l2.2,0
	c0.2,0,0.5,0.1,0.6,0.2c0,0,0,0.1,0.1,0.1l1.7,1.6c0.5,0.5,1.1,0.7,1.8,0.7c0.7,0,1.3-0.3,1.8-0.8l1.6-1.6c0.2-0.2,0.4-0.2,0.7-0.3
	l2.3,0c1.4,0,2.5-1.1,2.6-2.5l0-2.2c0-0.2,0.1-0.5,0.3-0.6l1.6-1.6c0.5-0.5,0.8-1.2,0.8-1.9c0-0.7-0.3-1.3-0.7-1.8L36.2,19.6z
	 M36.6,23.7l-1.5,1.5c-0.5,0.4-0.9,1.1-0.9,1.9l0,2.2c0,0.5-0.4,0.9-0.9,0.9l-2.2,0c-0.7,0-1.4,0.3-1.8,0.8l-1.6,1.6
	c-0.4,0.4-0.9,0.4-1.3,0L24.7,31c-0.4-0.5-1.1-0.8-1.8-0.8l-2.2,0c-0.5,0-0.9-0.4-0.9-0.9l0-2.2c0-0.7-0.3-1.4-0.8-1.8l-1.6-1.6
	c-0.2-0.2-0.2-0.4-0.2-0.6c0-0.3,0.1-0.5,0.3-0.7l1.6-1.6c0.5-0.5,0.8-1,0.9-1.8c0,0,0-0.1,0-0.1l0-2.2c0-0.5,0.4-0.9,0.9-0.9l2.2,0
	c0.7,0,1.4-0.3,1.8-0.8l1.6-1.6c0.3-0.3,0.9-0.3,1.3,0l1.5,1.5c0.4,0.5,1.1,0.9,1.9,0.9l2.2,0c0.5,0,0.9,0.4,0.9,0.9l0,2.2
	c0,0.7,0.3,1.4,0.8,1.8l1.6,1.6c0.2,0.2,0.2,0.4,0.2,0.6C36.9,23.3,36.8,23.5,36.6,23.7z"/>
<path class="st1" d="M33,33.9c-0.5,0-0.8,0.4-0.8,0.8v6.3l-4.8-2.4c-0.2-0.1-0.5-0.1-0.7,0l-4.8,2.4v-6.3c0-0.5-0.4-0.8-0.8-0.8
	s-0.8,0.4-0.8,0.8v7.7c0,0.3,0.1,0.6,0.4,0.7s0.6,0.2,0.8,0l5.6-2.8l5.6,2.8c0.1,0.1,0.2,0.1,0.4,0.1c0.2,0,0.3,0,0.4-0.1
	c0.2-0.2,0.4-0.4,0.4-0.7v-7.7C33.8,34.3,33.5,33.9,33,33.9z"/>
<path class="st1" d="M27,19.3c-2,0-3.7,1.7-3.7,3.7s1.7,3.7,3.7,3.7s3.7-1.7,3.7-3.7S29,19.3,27,19.3z M27,25c-1.1,0-2-0.9-2-2
	s0.9-2,2-2s2,0.9,2,2S28.1,25,27,25z"/>
</svg>
