<?xml version="1.0" encoding="utf-8"?>
<!-- Generator: Adobe Illustrator 19.0.0, SVG Export Plug-In . SVG Version: 6.00 Build 0)  -->
<svg version="1.1" id="Layer_1" xmlns="http://www.w3.org/2000/svg" xmlns:xlink="http://www.w3.org/1999/xlink" x="0px" y="0px"
	 width="40px" height="40px" viewBox="246 266 40 40" style="enable-background:new 246 266 40 40;" xml:space="preserve">
<style type="text/css">
	.st0{fill:#709A41;}
</style>
<g>
	<polygon class="st0" points="263.2,290.1 270.1,286 263.2,281.9 	"/>
	<path class="st0" d="M266,266c-11,0-20,9-20,20s9,20,20,20s20-9,20-20S277,266,266,266z M277,286.9c0,1.9-0.2,3.8-0.2,3.8
		s-0.2,1.6-0.9,2.3c-0.8,0.9-1.8,0.9-2.2,1c-3.1,0.2-7.7,0.2-7.7,0.2s-5.7-0.1-7.5-0.2c-0.5-0.1-1.6-0.1-2.4-1
		c-0.7-0.7-0.9-2.3-0.9-2.3s-0.2-1.9-0.2-3.8v-1.8c0-1.9,0.2-3.8,0.2-3.8s0.2-1.6,0.9-2.3c0.8-0.9,1.8-0.9,2.2-1
		c3.1-0.2,7.7-0.2,7.7-0.2h0c0,0,4.6,0,7.7,0.2c0.4,0.1,1.4,0.1,2.2,1c0.7,0.7,0.9,2.3,0.9,2.3s0.2,1.9,0.2,3.8V286.9L277,286.9z"/>
</g>
</svg>
