<?xml version="1.0" encoding="utf-8"?>
<!-- Generator: Adobe Illustrator 19.0.0, SVG Export Plug-In . SVG Version: 6.00 Build 0)  -->
<svg version="1.1" id="Layer_1" xmlns="http://www.w3.org/2000/svg" xmlns:xlink="http://www.w3.org/1999/xlink" x="0px" y="0px"
	 width="130px" height="215px" viewBox="0 0 130 215" style="enable-background:new 0 0 130 215;" xml:space="preserve">
<style type="text/css">
	.st0{fill:#709A41;}
</style>
<g>
	<g>
		<polygon class="st0" points="87.4,79.9 70,58.7 53.8,67.1 56.6,44.1 79,27.5 50.6,35.6 35.2,16.3 129.6,-0.1 		"/>
	</g>
</g>
<g>
	<path class="st0" d="M40,215c-1.9-0.1-3.4-1.8-3.2-3.7l0,0c0.1-1.9,1.8-3.4,3.7-3.3l0,0c1.9,0.1,3.4,1.8,3.3,3.7l0,0
		c-0.1,1.9-1.7,3.3-3.5,3.3l0,0C40.2,215.1,40.1,215.1,40,215z M35.2,194.7L35.2,194.7c-0.5-1.9,0.6-3.8,2.4-4.3l0,0
		c1.9-0.5,3.8,0.6,4.3,2.4l0,0l0,0l0,0c0.5,1.9-0.6,3.8-2.4,4.3l0,0c-0.3,0.1-0.6,0.1-0.9,0.1l0,0C37,197.2,35.6,196.2,35.2,194.7z
		 M28.2,179.3L28.2,179.3c-1-1.6-0.5-3.8,1.1-4.8l0,0c1.6-1,3.8-0.5,4.8,1.1l0,0l0,0l0,0c1,1.6,0.5,3.8-1.1,4.8l0,0
		c-0.6,0.4-1.2,0.5-1.8,0.5l0,0C30,180.9,28.8,180.3,28.2,179.3z M18,164.7c-1.1-1.6-0.8-3.8,0.8-4.9l0,0c1.6-1.1,3.8-0.8,4.9,0.8
		l0,0c1.1,1.6,0.8,3.8-0.8,4.9l0,0c-0.6,0.4-1.3,0.7-2,0.7l0,0C19.8,166.2,18.7,165.7,18,164.7z M8.1,149.1
		c-0.9-1.7-0.2-3.8,1.5-4.7l0,0c1.7-0.9,3.8-0.2,4.7,1.5l0,0c0.9,1.7,0.2,3.8-1.5,4.7l0,0c-0.5,0.3-1.1,0.4-1.6,0.4l0,0
		C10,151,8.8,150.3,8.1,149.1z M1.7,131.4L1.7,131.4c-0.4-1.9,0.8-3.8,2.7-4.1l0,0c1.9-0.4,3.7,0.8,4.1,2.7l0,0
		c0.4,1.9-0.8,3.8-2.7,4.1l0,0c-0.2,0-0.5,0.1-0.7,0.1l0,0C3.5,134.1,2.1,133,1.7,131.4z M3.7,116.3c-1.9-0.1-3.4-1.7-3.3-3.7l0,0
		c0.1-1.9,1.7-3.4,3.7-3.3l0,0c1.9,0.1,3.4,1.7,3.3,3.7l0,0c-0.1,1.9-1.6,3.3-3.5,3.3l0,0C3.8,116.3,3.8,116.3,3.7,116.3z M5.9,98.4
		C4,97.9,3,95.9,3.5,94.1l0,0c0.5-1.9,2.5-2.9,4.4-2.3l0,0c1.9,0.6,2.9,2.5,2.3,4.4l0,0c-0.4,1.5-1.9,2.5-3.4,2.5l0,0
		C6.5,98.6,6.2,98.5,5.9,98.4z M12.5,81.7c-1.6-1.1-2.1-3.2-1-4.8l0,0c1.1-1.6,3.2-2.1,4.8-1l0,0c1.6,1,2.1,3.2,1,4.8l0,0
		c-0.7,1-1.8,1.6-2.9,1.6l0,0C13.7,82.3,13,82.1,12.5,81.7z M23.5,67.5c-1.3-1.5-1.1-3.7,0.4-4.9l0,0c1.5-1.3,3.7-1.1,4.9,0.3l0,0
		c1.3,1.5,1.1,3.7-0.4,4.9l0,0c-0.7,0.6-1.5,0.8-2.3,0.8l0,0C25.2,68.7,24.2,68.3,23.5,67.5z M38,56.8c-0.7-1.8,0.2-3.8,2-4.5l0,0
		c1.8-0.7,3.8,0.2,4.5,2l0,0c0.7,1.8-0.2,3.8-2,4.5l0,0l0,0l0,0c-0.4,0.2-0.8,0.2-1.2,0.2l0,0C39.9,59.1,38.6,58.2,38,56.8z"/>
</g>
</svg>
