<?xml version="1.0" encoding="utf-8"?>
<!-- Generator: Adobe Illustrator 19.0.0, SVG Export Plug-In . SVG Version: 6.00 Build 0)  -->
<svg version="1.1" id="Layer_1" xmlns="http://www.w3.org/2000/svg" xmlns:xlink="http://www.w3.org/1999/xlink" x="0px" y="0px"
	 width="40px" height="40px" viewBox="-141 231 40 40" style="enable-background:new -141 231 40 40;" xml:space="preserve">
<style type="text/css">
	.st0{fill:#709A41;}
</style>
<g>
	<path class="st0" d="M-121,231c-11,0-20,9-20,20c0,11,9,20,20,20c11,0,20-9,20-20C-101,240-110,231-121,231z M-115.9,244.4
		c0,0.2-0.1,0.3-0.3,0.3l-2,0c-1.4,0-1.6,0.5-1.6,1.6v2.1h3.5c0.1,0,0.2,0,0.2,0.1c0.1,0.1,0.1,0.2,0.1,0.3l-0.5,3.9
		c0,0.2-0.2,0.3-0.3,0.3h-3v9.6c0,0.2-0.1,0.3-0.3,0.3h-4c-0.2,0-0.3-0.1-0.3-0.3v-9.6h-3c-0.2,0-0.3-0.1-0.3-0.3v-3.9
		c0-0.2,0.1-0.3,0.3-0.3h3v-2.5c0-3.4,2-5.4,5.3-5.4c1.4,0,2.6,0.1,3,0.2c0.2,0,0.3,0.2,0.3,0.3V244.4z"/>
</g>
</svg>
