<?xml version="1.0" encoding="utf-8"?>
<!-- Generator: Adobe Illustrator 19.0.0, SVG Export Plug-In . SVG Version: 6.00 Build 0)  -->
<svg version="1.1" id="Layer_1" xmlns="http://www.w3.org/2000/svg" xmlns:xlink="http://www.w3.org/1999/xlink" x="0px" y="0px"
	 width="50px" height="50px" viewBox="0 0 50 50" style="enable-background:new 0 0 50 50;" xml:space="preserve">
<style type="text/css">
	.st0{fill:#010101;}
</style>
<path class="st0" d="M43.1,13H6.9c-1.1,0-2-0.9-2-2s0.9-2,2-2h36.1c1.1,0,2,0.9,2,2S44.2,13,43.1,13z M45.1,25c0-1.1-0.9-2-2-2H6.9
	c-1.1,0-2,0.9-2,2s0.9,2,2,2h36.1C44.2,27,45.1,26.1,45.1,25z M45.1,39c0-1.1-0.9-2-2-2H6.9c-1.1,0-2,0.9-2,2s0.9,2,2,2h36.1
	C44.2,41,45.1,40.1,45.1,39z"/>
</svg>
