<?xml version="1.0" encoding="utf-8"?>
<!-- Generator: Adobe Illustrator 19.0.0, SVG Export Plug-In . SVG Version: 6.00 Build 0)  -->
<svg version="1.1" id="LogoGroup" xmlns="http://www.w3.org/2000/svg" xmlns:xlink="http://www.w3.org/1999/xlink" x="0px" y="0px"
	 width="191px" height="42px" viewBox="0 0 191 42" style="enable-background:new 0 0 191 42;" xml:space="preserve">
<style type="text/css">
	.st0{fill:#D3222A;}
	.st1{fill:#FFFFFF;}
</style>
<g id="LogoText">
	<path id="J" d="M37.4,20.4c4.6,0,4.9-1,5.2-6l-0.1-7.8c0.1-1.8,0.1-3.6,0.1-6h8.1c-0.2,2.8-0.4,5.1-0.5,7.4l-0.4,10.1
		c-0.2,5.9-3.1,8.5-10.3,8.5c-2.1,0-4.4-0.2-6.6-0.7v-6.4C34.5,20.1,36.1,20.4,37.4,20.4z"/>
	<path id="O" d="M63.6,6.4c7.4,0,11.5,3.5,11.5,9.6c0,6.5-4.7,10.5-12.2,10.5c-7.4,0-11.6-3.5-11.6-9.6C51.3,10.4,55.9,6.4,63.6,6.4
		z M59.5,16.7c0,3.1,1.1,4.6,3.6,4.6c2.5,0,3.8-1.7,3.8-4.9c0-3.4-1-4.9-3.6-4.9C60.8,11.5,59.5,13.2,59.5,16.7z"/>
	<path id="H" d="M77.3,0.7h7.5c-0.3,2.4-0.3,5.3-0.5,8.3c1.5-1.8,3.3-2.8,6.4-2.8c5.2,0,7.5,2.1,7.5,6.4c0,2.6-0.2,7.2-0.4,13.5H90
		c0.4-4.8,0.5-8,0.5-9.4c0-3.3-0.5-4.8-2.7-4.8c-4,0-3.8,4.2-3.7,14.2h-8.2C76.4,21,77,12.2,77.3,0.7z"/>
	<path id="N_1_" d="M100.6,6.9h7.3v2.4c1.6-2,3.6-2.9,6.7-2.9c5.3,0,7.5,1.9,7.5,6.2c0,2.6,0.2,7.1,0,13.5l-8.2,0.1
		c0.4-4.8,0.5-8,0.5-9.4c0-3.3-0.5-4.8-2.7-4.8c-4,0-4.1,4.5-4.2,14.2H100C100.6,20.1,100.6,13.7,100.6,6.9z"/>
	<path id="N" d="M125,6.9h7.3v2.4c1.6-2,3.6-2.9,6.7-2.9c5.3,0,7.5,1.9,7.5,6.2c0,2.6-0.2,7-0.3,13.7h-7.8c0.4-5,0.5-8.1,0.5-9.5
		c0-3.3-0.5-4.8-2.7-4.8c-4,0-4.4,4.5-4.5,14.2H124C124.7,20.1,125,13.7,125,6.9z"/>
	<path id="Y" d="M149.2,13.3c-0.7-2-1.6-4.2-2.6-6.7h8.4c0.4,1.4,0.8,3,1.4,4.8l2.2,7.3c0,0,3.4-8.2,4.5-12.1h7.9L162,26.1
		c-3.2,7.5-4.9,9-11.3,9c-1.5,0-2.8-0.3-4.2-0.6l-0.4-5.6c1.2,0.2,2.3,0.6,3.1,0.6c2.5,0,4.9-1.4,4.5-3.9L149.2,13.3z"/>
	<path id="Apostrophe" d="M179.5,0.7l-4.4,7.8h-3.2l2.8-7.8H179.5z"/>
	<path id="S" d="M180.5,21.4c1.3,0,2-0.4,2-1.1c0-0.6-0.9-1.2-2.6-2.3c-2.9-1.9-4.7-3.2-4.7-6c0-3.5,2.7-5.4,7.9-5.4
		c2.3,0,4.3,0.2,6.2,0.7l0.5,5.2c-1.6-0.5-3.1-0.8-4.8-0.8c-1.1,0-1.7,0.5-1.7,1.1c0,0.8,0.9,1.2,2.3,2.2c2.8,1.8,4.5,3.3,4.5,6
		c0,3.9-2.8,5.9-8.2,5.9c-2.2,0-4.4-0.3-6.6-0.9l-0.5-5.7C177.1,20.9,179,21.4,180.5,21.4z"/>
	<g id="Selected">
		<path id="Tail" d="M140.1,41.1c0,0,7.2-2.1,15.4-1.6s16.3,1.1,21,1.1c13.6-0.2,12.7-4.5,12.7-4.5s1.8,1,1.6,2.8
			c-0.2,1.5-1.2,4-14.2,3.1s-20.3-1.7-21.1-1.8c-8-0.4-15.4,1.2-15.4,1.2L140.1,41.1z"/>
		<path id="_x32_nd_S" d="M115.8,30.5c0.4,2.9-3.4,2.2-3.4,2.2s0.6-0.8,0.9-1.7c0.3-1.2-0.2-2.3-1.2-2.3c-1.2-0.1-1.7,1.9-1.8,3.3
			c-0.3,4,1,10.7-6.5,10c-3.4-0.3-4.2-2.1-4.4-3.4c-0.2-1.2,0.4-2.7,2-2.5c1.3,0.1,1.5,1.3,1.6,1.8c-0.1,1.6-1.6,1.8-1.6,1.8
			s0.2,1.9,2.4,2.1c1.3,0.1,3.9-0.2,3.8-3.8c-0.5-10.1,4.3-9.5,4.5-9.5C112.3,28.2,115.5,28.5,115.8,30.5z"/>
		<path id="_x31_st_S" d="M50.9,30.5c0.4,2.9-3.4,2.2-3.4,2.2s0.6-0.8,0.9-1.7c0.3-1.2-0.2-2.3-1.2-2.3c-1.2-0.1-1.7,1.9-1.8,3.3
			c-0.3,4,1,10.7-6.5,10c-3.4-0.3-4.2-2.1-4.4-3.4c-0.2-1.2,0.4-2.7,2-2.5c1.3,0.1,1.5,1.3,1.6,1.8c-0.1,1.6-1.6,1.8-1.6,1.8
			s0.2,1.9,2.4,2.1c1.3,0.1,3.9-0.2,3.8-3.8c-0.5-10.1,4.3-9.5,4.5-9.5C47.5,28.2,50.6,28.5,50.9,30.5z"/>
		<path id="eeds" d="M130.9,41.8c-2,0.1-1.6-1.6-1.6-1.6c-0.4,0.8-1.4,1.9-2.8,1.7c-1.3-0.2-2-1.4-1.6-2.8c0,0-2.3,3.6-5.3,2.9
			c-1.4-0.3-1.9-1.3-1.9-2.5c0,0-2.7,3-5.5,2.5c-3-0.5-2.1-4.3-1.2-5.5c1.9-2.7,6.3-2.8,6.5-1.3c0.7,3.8-5,3.5-5,3.5
			s-0.5,2.4,1.4,2.4c1.9,0,3.8-2.2,3.8-2.2s0.3-1.7,0.8-2.4c1.7-2.9,6.2-2.8,6.5-1.4c0.7,3.8-5,3.5-5,3.5s-0.7,2.1,1.4,2.4
			c1.6,0.2,3.6-2.5,3.6-2.5c0.4-1,0.6-1.6,1-2.1c1.5-2.3,3.8-2.8,5.3-2.1c0.4,0.2,0.5,0.9,0.5,0.9l3.8-6.6l2.5,0l-5.8,10.1
			c0,0-1.1,1.8-0.6,2.1c0.5,0.3,1.8-0.9,1.8-0.9c-0.1-0.7,0.4-1.9,1.5-1.7c0.7,0.1,1.2,0.3,1.2,1.2c-0.1,1.1-1.2,1.2-1.2,1.2
			s0.1,1,1.4,1.1c0.7,0,1.7-0.6,1.4-1.6c-0.5-1.7-1.9-2.1-1.4-4.1c0.5-1.8,2.9-1.6,3-1.6c0.4,0.1,2.2,0.2,2.4,1.5
			c0.2,1.9-2.2,1.3-2.2,1.3s1.4-2.2-0.2-2.4c-1.6-0.2-1.4,1.4-0.6,2.3c0.3,0.4,1.6,1.5,1.3,3c-0.4,2-2.8,2.2-3.8,2
			c-1.3-0.1-2.3-0.8-2.7-1.8C133.6,40.2,132.1,41.8,130.9,41.8z M121.2,35.9c-1.3,1.5-1.3,2.3-1.3,2.3s1.7-0.2,2.6-1.2
			c1.5-1.8,1.2-2.4,1.1-2.5C123.4,34.3,122.5,34.4,121.2,35.9z M113.8,35.9c-1.3,1.5-1.3,2.3-1.3,2.3s1.7-0.2,2.6-1.2
			c1.5-1.8,1.2-2.4,1.1-2.5C115.9,34.3,115.1,34.4,113.8,35.9z M127.8,37.1c-1.2,2.5-0.9,3.5-0.3,3.7c0.7,0.3,1.3-0.6,1.3-0.6
			s2.4-4,2.5-4.5c0.1-0.3,0-0.5-0.3-0.8C130.7,34.6,129,34.6,127.8,37.1z"/>
		<path d="M59.9,38.2c0,0,0.2-1.2,1.2-2.3c0.7-0.8,2-1.8,2.5-1.4c0.4,0.3-0.4,1.8-1.3,2.7C61.3,38.1,59.9,38.2,59.9,38.2z
			 M47.8,38.2c0,0,0.2-1.2,1.2-2.3c0.7-0.8,2-1.8,2.5-1.4c0.4,0.3-0.4,1.8-1.3,2.7C49.1,38.1,47.8,38.2,47.8,38.2z M80.6,38.2
			c0,0,0.2-1.2,1.2-2.3c0.7-0.8,2-1.8,2.5-1.4c0.4,0.3-0.4,1.8-1.3,2.7C82,38.1,80.6,38.2,80.6,38.2z M70.4,34.6
			c1.3,0.3-0.3,3-0.3,3s2.6,0,2.4-1.9c-0.1-1.2-1.2-1.5-2.3-1.5c-1.5-0.1-3.1,0.3-4.3,2.1c-0.3,0.4-0.7,1.4-0.8,2.3
			c0,0-1.7,2.3-3.7,2.3c-1.9,0-1.5-2.2-1.5-2.2s5.8,0.2,5-3.6c-0.3-1.4-4.5-1.6-6.4,1.3c-0.3,0.5-0.8,1.4-0.8,2.6
			c0,0-2.2,2.2-2.8,1.6c-0.3-0.3-0.1-0.9-0.1-0.9l6.6-10.9h-2.8l-5.8,9.9c0,0-1.9,2.2-3.6,2.3c-2.1,0.1-1.4-2.3-1.4-2.3
			s5.8,0.2,5-3.6c-0.3-1.4-4.7-1.4-6.5,1.3c-0.8,1.2-1.9,5.2,1.2,5.5c3,0.3,5-2.5,5-2.5s-0.7,2.5,1.4,2.4c1.7-0.1,3.8-2.4,3.8-2.4
			c0,1,0.6,2.3,1.9,2.5c3.4,0.4,5.4-2.7,5.4-2.7c0,0.9,0.4,2.3,1.6,2.6c3.1,0.7,5.7-2.3,5.7-2.3s-0.6,2,1.1,2.2
			c2.4,0.4,5.1-2.5,5.1-2.5c0,1.2,0.7,2.4,1.9,2.6c2.9,0.4,5.2-2.5,5.2-2.5c-0.2,1,0.4,2.3,1.7,2.5c1.1,0.1,2-0.5,2.9-1.8
			c0,0-0.5,1.5,1.4,1.7c2.2,0.2,5.5-5.1,5.5-5.1h-0.2c0,0-3.4,4.9-4.5,4c-0.4-0.3,0.7-2,0.7-2l5.8-10.1l-2.7,0l-3.8,6.6
			c0,0,0-0.6-0.5-0.9c-1.5-0.8-3.8-0.2-5.3,2.1c-0.5,0.7-1,2.5-1,2.5S83.9,40.9,82,41c-1.9,0.1-1.4-2.3-1.4-2.3s5.7,0.2,5-3.6
			c-0.3-1.4-4.7-1.5-6.4,1.3c-0.5,0.8-0.8,2.2-0.8,2.2s-1.4,1.7-3.6,2.2c-0.9,0.2-0.4-1-0.4-1l2.6-4.5l2.3,0l0-0.8l-1.7,0l1.6-2.7
			h-2.4L75,34.6l-1.8,0l0,0.8l1.3,0c0,0-1.5,2.7-1.7,3c-0.4,0.5-1.9,2.4-4.3,2.7c-1.1,0.1-1.3-1.4-1.2-2.7
			C67.4,38,68.3,34.2,70.4,34.6z M91.8,34.9c0.3,0.3,0.4,0.5,0.3,0.8c-0.1,0.5-2.5,4.5-2.5,4.5s-0.6,0.9-1.3,0.6
			c-0.6-0.3-1-1.2,0.3-3.7C89.8,34.6,91.5,34.6,91.8,34.9z"/>
	</g>
</g>
<ellipse id="NEWRedOval" class="st0" cx="14.8" cy="20.3" rx="14.5" ry="20.3"/>
<circle id="NEWWhiteCircleTop" class="st1" cx="14.7" cy="2.6" r="1.9"/>
<path id="NEWwhiteJ" class="st1" d="M6.3,36.4c1,0.4,1.6,0.7,2.5,0.7c2.3,0,5.8-1.1,7-5.1c1.7-5.6-1.2-11.9-1.7-14
	c-1.3-6-0.7-7.9-0.4-9.1c0.2-0.7,0.2-0.4,0.2,0.2c0,2,0.4,4.6,1.2,6.2c0.1,0.2,5.6,11.9,4.4,17.4c-0.9,4-4,5.8-7.3,5.8
	C7.6,38.3,6.4,36.4,6.3,36.4"/>
</svg>
